inDegrees=yes
name=ik_S57_A03_T01
DataType=double
version=3
OpenSimVersion=4.3-2021-08-27-4bc7ad9
endheader
time	pelvis_tilt	pelvis_list	pelvis_rotation	pelvis_tx	pelvis_ty	pelvis_tz	hip_flexion_r	hip_adduction_r	hip_rotation_r	knee_angle_r	knee_angle_r_beta	ankle_angle_r	subtalar_angle_r	mtp_angle_r	hip_flexion_l	hip_adduction_l	hip_rotation_l	knee_angle_l	knee_angle_l_beta	ankle_angle_l	subtalar_angle_l	mtp_angle_l	lumbar_extension	lumbar_bending	lumbar_rotation	arm_flex_r	arm_add_r	arm_rot_r	elbow_flex_r	pro_sup_r	wrist_flex_r	wrist_dev_r	arm_flex_l	arm_add_l	arm_rot_l	elbow_flex_l	pro_sup_l	wrist_flex_l	wrist_dev_l
0	0	0	0	0	0.9399999999999999	0	0	0	0	0	0	0	0	0	0	0	0	0	0	0	0	0	0	0	0	0	0	0	0	89.99999999963507	0	0	0	0	0	0	89.99999999869995	0	0
0.02	-2.265960224970786	-0.7692021685869941	-75.75439538795047	0	0.9399999999999999	0	1.707680909921464	3.221792981476374	-0.2956365361481055	10.36776937580618	0.1809517116952552	0	0	0	2.655222215301741	0.2644747355526605	-0.8282697316770624	1.737656102873421	0.03032782026251451	0	0	0	0	0	0	1.573242430801418	-1.573242430801418	0.2798203370781135	7.770913717650387	89.72017967899416	0	0	1.573242430801418	-1.573242430801418	0.2798203370781135	7.770913717650387	89.72017967811152	0	0
0.04	-2.016798040417842	-0.925621668622962	-75.4046729754711	0	0.9399999999999999	0	1.366463613682978	3.109424413806647	-0.4159221410655651	10.24050283651301	0.1787304915569706	0	0	0	2.436245028246502	0.446299095801097	-0.4998179286310513	1.800367304693256	0.03142233721215328	0	0	0	0	0	0	1.57780216532183	-1.57780216532183	0.2807153782004415	7.813022870485002	89.71928463792544	0	0	1.57780216532183	-1.57780216532183	0.2807153782004415	7.813022870485002	89.71928463704293	0	0
0.06	-1.967134328892951	-0.991891453921955	-75.26549740024086	0	0.9399999999999999	0	1.120787210296132	3.217344463088399	-0.263548637549739	9.886665633962311	0.1725548673564148	0	0	0	2.30396946732052	0.3090990608928849	-0.6307628948279504	1.863128596908109	0.03251772840410875	0	0	0	0	0	0	1.584352570393721	-1.584352570393721	0.2820055542776911	7.874418383776089	89.7179944619254	0	0	1.584352570393721	-1.584352570393721	0.2820055542776911	7.874418383776089	89.71799446104325	0	0
0.08	-1.864200625049435	-1.071156849457613	-75.02797649862315	0	0.9399999999999999	0	0.8507157309630199	3.301153000148318	-0.347364697403042	9.523828463048023	0.1662221640753391	0	0	0	2.200465162849039	0.3057702361151014	-0.3575412990442966	1.861409095447871	0.03248771744213474	0	0	0	0	0	0	1.591462549502149	-1.591462549502149	0.28340285070399	7.940143965574749	89.71659716558277	0	0	1.591462549502149	-1.591462549502149	0.28340285070399	7.940143965574749	89.71659716470094	0	0
0.1	-1.707778422595533	-1.119315817711765	-74.8084935255219	0	0.9399999999999999	0	0.5898064525664517	3.308928198552725	-0.5862622470142403	9.21381755267851	0.1608114529722861	0	0	0	2.083622510996697	0.3489046177999186	-0.2175918107414899	1.848575870354388	0.03226373541060391	0	0	0	0	0	0	1.59886236683679	-1.59886236683679	0.2848565199232727	8.008204712461296	89.71514349645055	0	0	1.59886236683679	-1.59886236683679	0.2848565199232727	8.008204712461296	89.71514349556902	0	0
0.12	-1.517793851793709	-1.095610397830285	-74.57486463480427	0	0.9399999999999999	0	0.4021421537807381	3.262432667655199	-0.9621391548978988	9.055295472348133	0.1580447207334101	0	0	0	2.053353512981431	0.33682531629357	0.3795561160491573	1.780028450618612	0.03106735724246807	0	0	0	0	0	0	1.603344635272166	-1.603344635272166	0.2857385751031602	8.049633098527638	89.71426144132353	0	0	1.603344635272166	-1.603344635272166	0.2857385751031602	8.049633098527638	89.71426144044213	0	0
0.14	-1.340027927305971	-1.077535343958383	-74.31470866735391	0	0.9399999999999999	0	0.2365863605738305	3.158242851369548	-1.198800247908679	8.951118793627527	0.1562264946859432	0	0	0	2.09204755799547	0.5218823867948406	0.326961122416801	1.850461970240471	0.03229665406363754	0	0	0	0	0	0	1.608346701971138	-1.608346701971138	0.2867216577434681	8.095479353172998	89.7132783587421	0	0	1.608346701971138	-1.608346701971138	0.2867216577434681	8.095479353172998	89.71327835786089	0	0
0.16	-1.349914304785489	-1.077031873185052	-74.34595281036087	0	0.9399999999999999	0	0.1173792669044757	3.18667512087969	-1.047873163475566	8.798142749466589	0.1535565590386586	0	0	0	2.266840421920882	0.5258756035855014	-0.1976360339919455	2.123585984232087	0.0370635673740543	0	0	0	0	0	0	1.615539222412632	-1.615539222412632	0.2881382673752791	8.161887953169238	89.71186174919514	0	0	1.615539222412632	-1.615539222412632	0.2881382673752791	8.161887953169238	89.71186174831426	0	0
0.18	-1.009286891464173	-1.051139412795683	-73.83785468079613	0	0.9399999999999999	0	-0.03996797739890873	2.813950564575544	-1.405249875562239	8.725836757500714	0.1522945814099335	0	0	0	2.352413617625741	0.8380278108596223	0.2054355423207133	2.238648450945139	0.03907178626366345	0	0	0	0	0	0	1.618865113246122	-1.618865113246122	0.2887888983460186	8.191457540026985	89.71121111826338	0	0	1.618865113246122	-1.618865113246122	0.2887888983460186	8.191457540026985	89.71121111738258	0	0
0.2	-0.7699837527257455	-1.062114651319801	-73.57434562822989	0	0.9399999999999999	0	-0.2287020412799148	2.673733557288251	-1.400503790269445	8.691768719198368	0.151699981971862	0	0	0	2.446892932532508	1.033948983454882	0.5983151184306663	2.366090521079628	0.0412960699930678	0	0	0	0	0	0	1.621735672181581	-1.621735672181581	0.2893487986117005	8.216630154877906	89.71065121803119	0	0	1.621735672181581	-1.621735672181581	0.2893487986117005	8.216630154877906	89.71065121715053	0	0
0.22	-0.7524505041528365	-1.058559943117039	-73.57426667388913	0	0.9399999999999999	0	-0.421851213419408	2.679224018447436	-1.183907808453044	8.423368858668969	0.1470155206937304	0	0	0	2.725030842798797	1.06984415104878	0.6715544661427971	2.704734095164739	0.04720651535157434	0	0	0	0	0	0	1.631131506083181	-1.631131506083181	0.2911902479228213	8.300828486051214	89.70880976883028	0	0	1.631131506083181	-1.631131506083181	0.2911902479228213	8.300828486051214	89.70880976794999	0	0
0.24	-0.4577163983042082	-1.105925875960034	-73.25678292985751	0	0.9399999999999999	0	-0.7425680432090696	2.486300676169586	-1.300444522385521	8.15353087810462	0.14230595948595	0	0	0	2.777293788125638	1.304757149538055	0.6455989382773015	2.97326590333664	0.05189327955050783	0	0	0	0	0	0	1.637874913507574	-1.637874913507574	0.2925164426089495	8.362001479309779	89.70748357422362	0	0	1.637874913507574	-1.637874913507574	0.2925164426089495	8.362001479309779	89.70748357334354	0	0
0.26	-0.4756587758034618	-1.097109935553376	-73.28450549290636	0	0.9399999999999999	0	-0.7409189352617237	2.508134040428559	-1.258335484018772	8.11592571386503	0.141649625554216	0	0	0	2.97953785115199	1.325671927865104	-0.002420980002566095	3.271239200093048	0.05709389466192929	0	0	0	0	0	0	1.644231217169478	-1.644231217169478	0.2937673932033623	8.41969607537855	89.70623262370421	0	0	1.644231217169478	-1.644231217169478	0.2937673932033623	8.41969607537855	89.70623262282432	0	0
0.28	0.0408914396045164	-1.143277761828781	-72.68353913672935	0	0.9399999999999999	0	-1.163734202119509	2.094357701058418	-1.734347135732854	7.749542095946515	0.135255025096169	0	0	0	2.951311310002668	1.83851575069011	-0.02082410127691307	3.69020040386069	0.06440614710579351	0	0	0	0	0	0	1.655920960538368	-1.655920960538368	0.2960674108765903	8.525261709778123	89.70393260616872	0	0	1.655920960538368	-1.655920960538368	0.2960674108765903	8.525261709778123	89.70393260528934	0	0
0.3	0.04714321925611244	-1.133396553273166	-72.70640862435719	0	0.9399999999999999	0	-1.136847264450847	2.129796397523605	-1.71185247546237	7.542599790019538	0.1316432004960739	0	0	0	3.101715491889572	1.953863086116107	-0.6555911685886803	3.94499686126506	0.06885318420991725	0	0	0	0	0	0	1.662208963794278	-1.662208963794278	0.2973044017402006	8.581759261781679	89.70269561537928	0	0	1.662208963794278	-1.662208963794278	0.2973044017402006	8.581759261781679	89.70269561450003	0	0
0.32	0.2201935459623183	-1.08199941929328	-72.50870295481275	0	0.9399999999999999	0	-1.512819323395193	1.922822939071166	-1.734758488873718	7.129168245589278	0.1244274588141606	0	0	0	3.2359543661618	2.185093925332686	-0.737783074993163	4.219598833408256	0.07364589275628576	0	0	0	0	0	0	1.670900681113852	-1.670900681113852	0.2990138790575406	8.659521458148546	89.70098613816435	0	0	1.670900681113852	-1.670900681113852	0.2990138790575406	8.659521458148546	89.70098613728535	0	0
0.34	0.2097686625033276	-1.081889763444467	-72.50220322393433	0	0.9399999999999999	0	-1.483993502617145	1.956864523436842	-1.630562023056557	7.173803343989998	0.1252064882432048	0	0	0	3.378795533550421	2.198236350648447	-0.3431568723335655	4.258685815768794	0.07432808929314609	0	0	0	0	0	0	1.67575797303447	-1.67575797303447	0.2999675099693141	8.702486190212978	89.70003250730969	0	0	1.67575797303447	-1.67575797303447	0.2999675099693141	8.702486190212978	89.70003250643083	0	0
0.36	0.2497069875759078	-1.123693279375777	-72.70583003016768	0	0.9399999999999999	0	-1.540596392180271	1.92153559997127	-1.440237762272838	7.197423276273044	0.1256187338306421	0	0	0	3.325035271952846	2.134486124122343	0.5019851252194295	4.131963506444789	0.0721163677597115	0	0	0	0	0	0	1.681149390355718	-1.681149390355718	0.3010275386488712	8.750384272215904	89.69897247869363	0	0	1.681149390355718	-1.681149390355718	0.3010275386488712	8.750384272215904	89.69897247781492	0	0
